<svg width="41" height="29" viewBox="0 0 41 29" fill="none" xmlns="http://www.w3.org/2000/svg">
<g id="Icon" clip-path="url(#clip0_1_3104)">
<g id="Clip path group">
<mask id="mask0_1_3104" style="mask-type:luminance" maskUnits="userSpaceOnUse" x="0" y="10" width="13" height="13">
<g id="clippath">
<path id="Vector" d="M8.15548 12.5268L12.1472 20.1118L11.1021 21.5149C9.70572 23.3909 6.23365 23.3909 4.83727 21.5149L0.662664 15.905C-0.00213802 15.0131 -0.00213802 13.9907 0.662664 13.0989C3.18543 9.70949 6.7591 10.6509 8.15548 12.5268Z" fill="white"/>
</g>
</mask>
<g mask="url(#mask0_1_3104)">
<g id="Group">
<path id="Vector_2" d="M12.1464 9.71094H0V23.3923H12.1464V9.71094Z" fill="#1159E5"/>
</g>
</g>
</g>
<g id="Group_2" opacity="0.1">
<path id="Vector_3" fill-rule="evenodd" clip-rule="evenodd" d="M12.1499 20.1115L11.1048 21.5145C10.9568 21.7149 10.7826 21.8929 10.5939 22.0505L6.21605 13.5804C5.39158 11.8171 2.17208 11.5491 0.703125 13.0512C2.12272 11.2225 5.54544 11.2383 6.9302 13.0985L12.1499 20.1115Z" fill="#01052D"/>
</g>
<g id="Clip path group_2">
<mask id="mask1_1_3104" style="mask-type:luminance" maskUnits="userSpaceOnUse" x="28" y="10" width="13" height="13">
<g id="clippath-1">
<path id="Vector_4" d="M32.8433 12.5268L28.8516 20.1118L29.8967 21.5149C31.293 23.3909 34.7651 23.3909 36.1615 21.5149L40.3361 15.905C41.0009 15.0131 41.0009 13.9907 40.3361 13.0989C37.8133 9.70949 34.2397 10.6509 32.8433 12.5268Z" fill="white"/>
</g>
</mask>
<g mask="url(#mask1_1_3104)">
<g id="Group_3">
<path id="Vector_5" d="M40.998 9.71094H28.8516V23.3923H40.998V9.71094Z" fill="#1159E5"/>
</g>
</g>
</g>
<g id="Clip path group_3">
<mask id="mask2_1_3104" style="mask-type:luminance" maskUnits="userSpaceOnUse" x="20" y="0" width="21" height="19">
<g id="clippath-2">
<path id="Vector_6" d="M23.6208 15.5655L24.6659 16.9686C26.0594 18.84 29.8711 18.7297 31.2704 16.865L34.0718 13.1017C35.4682 11.2258 38.9403 11.2258 40.3366 13.1017L31.9845 1.87964C30.5882 0.00366113 27.1161 0.00366113 25.7197 1.87964L20.5 8.89261L23.6208 15.5655Z" fill="white"/>
</g>
</mask>
<g mask="url(#mask2_1_3104)">
<g id="Group_4">
<path id="Vector_7" d="M40.3366 0H20.5V18.8386H40.3366V0Z" fill="#1159E5"/>
</g>
</g>
</g>
<g id="Clip path group_4">
<mask id="mask3_1_3104" style="mask-type:luminance" maskUnits="userSpaceOnUse" x="0" y="0" width="32" height="29">
<g id="clippath-3">
<path id="Vector_8" d="M27.8077 21.5138L31.9765 15.9129C30.5744 17.7799 27.1139 17.7754 25.7204 15.9039L15.2781 1.87574C13.8817 -0.000245094 10.4126 -0.000245094 9.01618 1.87574L0.664062 13.0978C2.06044 11.2219 5.5325 11.2219 6.92888 13.0978L17.3683 27.126C18.7647 29.002 22.2367 29.002 23.6331 27.126L27.8077 21.5161V21.5138Z" fill="white"/>
</g>
</mask>
<g mask="url(#mask3_1_3104)">
<g id="Group_5">
<path id="Vector_9" d="M31.9765 0H0.664062V29H31.9765V0Z" fill="#1159E5"/>
</g>
</g>
</g>
<g id="Group_6">
<path id="Vector_10" fill-rule="evenodd" clip-rule="evenodd" d="M27.8076 21.5135L31.9764 15.9126C30.5742 17.7796 27.1137 17.7751 25.7203 15.9036L20.5006 8.89062L12.1484 20.1127L17.3682 27.1257C18.7645 29.0017 22.2366 29.0017 23.633 27.1257L27.8076 21.5158V21.5135Z" fill="#1159E5"/>
</g>
<g id="Group_7">
<path id="Vector_11" fill-rule="evenodd" clip-rule="evenodd" d="M1.11984 12.4838L0.687287 13.0649L0.664062 13.0964C2.06044 11.2204 5.5325 11.2204 6.92888 13.0964L17.3683 27.1246C18.7647 29.0006 22.2367 29.0006 23.6331 27.1246C22.3703 28.8204 18.9331 28.6853 17.6702 26.9895L7.22789 12.9613C6.71696 12.2766 5.66024 11.6753 4.49611 11.4952C3.39004 11.324 1.93851 11.6798 1.11984 12.4838Z" fill="white"/>
</g>
<g id="Group_8">
<path id="Vector_12" fill-rule="evenodd" clip-rule="evenodd" d="M31.6799 16.3116L31.976 15.9129C30.5738 17.7799 27.1133 17.7754 25.7199 15.9039L15.2804 1.87574C13.8841 -0.000245064 10.412 -0.000245064 9.01562 1.87574C10.2785 0.179921 13.7157 0.315046 14.9785 2.01086L25.4179 16.039C25.9637 16.7732 26.9972 17.3903 28.26 17.5097C29.398 17.6178 30.7741 17.352 31.677 16.3116" fill="white"/>
</g>
<g id="Group_9">
<path id="Vector_13" opacity="0.1" fill-rule="evenodd" clip-rule="evenodd" d="M28.8516 20.1092L29.8967 21.5123C30.0447 21.7127 30.2189 21.8906 30.4076 22.0482L34.7854 13.5804C35.6099 11.8171 38.8294 11.5491 40.2984 13.0512C38.8788 11.2225 35.456 11.2383 34.0713 13.0985L28.8516 20.1115V20.1092Z" fill="#01052D"/>
</g>
<g id="Group_10">
<path id="Vector_14" fill-rule="evenodd" clip-rule="evenodd" d="M39.8805 12.4838L40.313 13.0649L40.3362 13.0964C38.9399 11.2204 35.4678 11.2204 34.0714 13.0964L23.632 27.1246C22.2356 29.0006 18.7636 29.0006 17.3672 27.1246C18.63 28.8204 22.0673 28.6853 23.3301 26.9895L33.7695 12.9613C34.2805 12.2766 35.3372 11.6753 36.5013 11.4952C37.6103 11.324 39.0589 11.6798 39.8776 12.4838" fill="white"/>
</g>
<g id="Group_11">
<path id="Vector_15" fill-rule="evenodd" clip-rule="evenodd" d="M39.8805 12.4838L40.313 13.0649L40.3362 13.0964C38.9399 11.2204 35.4678 11.2204 34.0714 13.0964L23.632 27.1246C22.2356 29.0006 18.7636 29.0006 17.3672 27.1246C18.63 28.8204 22.0673 28.6853 23.3301 26.9895L33.7695 12.9613C34.2805 12.2766 35.3372 11.6753 36.5013 11.4952C37.6103 11.324 39.0589 11.6798 39.8776 12.4838" fill="white"/>
</g>
<g id="Group_12">
<path id="Vector_16" opacity="0.1" fill-rule="evenodd" clip-rule="evenodd" d="M20.5 8.88818L22.0299 6.83203L26.4339 15.4192C27.2583 17.1826 30.4778 17.4506 31.9468 15.9484C30.5272 17.7771 27.1045 17.7614 25.7197 15.9011L20.5 8.88818Z" fill="#01052D"/>
</g>
</g>
<defs>
<clipPath id="clip0_1_3104">
<rect width="41" height="29" fill="white"/>
</clipPath>
</defs>
</svg>
